<?xml version="1.0" standalone="no"?>
<!DOCTYPE svg PUBLIC "-//W3C//DTD SVG 20010904//EN"
 "http://www.w3.org/TR/2001/REC-SVG-20010904/DTD/svg10.dtd">
<svg version="1.0" xmlns="http://www.w3.org/2000/svg"
 width="1em" height="1em" viewBox="0 0 1024.000000 1024.000000"
 preserveAspectRatio="xMidYMid meet">

<g transform="translate(0.000000,1024.000000) scale(0.100000,-0.100000)"
fill="currentColor" stroke="none">
<path d="M4695 9475 c-708 -74 -1267 -316 -1748 -757 -295 -270 -593 -690
-761 -1073 -101 -228 -182 -506 -228 -780 -31 -190 -33 -528 -4 -678 17 -83
18 -108 9 -163 -24 -137 -68 -187 -258 -294 -126 -70 -165 -108 -165 -160 0
-15 9 -38 19 -51 17 -22 29 -24 111 -28 87 -3 91 -4 88 -25 -3 -19 -10 -21
-70 -24 -68 -3 -68 -3 -68 -32 0 -16 7 -82 15 -147 62 -472 166 -706 367 -824
119 -70 124 -83 198 -487 28 -152 64 -334 81 -406 48 -203 37 -262 -77 -411
-66 -87 -86 -140 -87 -226 -1 -59 4 -77 40 -150 23 -46 46 -102 52 -124 21
-77 13 -182 -24 -330 -79 -313 -83 -540 -15 -783 98 -349 408 -620 830 -727
227 -57 540 -76 770 -46 220 28 459 96 635 181 175 84 276 158 425 310 79 80
153 146 179 159 24 13 114 52 200 88 317 132 700 341 926 506 180 132 796 632
923 749 45 42 47 49 34 155 l-7 53 -230 -196 c-126 -108 -297 -250 -380 -317
-82 -67 -211 -173 -285 -237 -158 -135 -209 -175 -215 -168 -14 13 66 136 151
233 382 434 439 564 479 1073 7 101 16 186 19 189 2 3 53 5 113 6 94 2 115 5
165 29 31 14 77 45 101 68 l45 41 6 -53 c4 -29 15 -128 26 -220 11 -91 20
-179 20 -195 0 -51 9 -54 85 -27 265 96 338 177 410 456 19 73 43 144 53 158
10 14 61 46 114 73 111 54 174 112 278 252 263 354 404 652 520 1100 132 510
158 923 89 1400 -83 579 -340 1137 -738 1600 -603 702 -1370 1112 -2342 1251
-158 22 -695 28 -874 9z m834 -245 c272 -36 442 -77 716 -170 364 -125 694
-300 975 -519 120 -93 308 -278 403 -396 440 -546 735 -1390 714 -2045 -8
-238 -56 -489 -117 -611 -26 -50 -74 -99 -99 -99 -31 0 -27 48 8 119 44 86 67
163 93 302 19 105 23 159 23 354 0 142 -5 263 -13 315 -39 250 -122 548 -194
696 -46 95 -241 337 -335 415 l-60 51 13 39 c9 25 11 55 7 86 l-7 48 -8 -50
c-12 -81 -35 -120 -87 -148 -77 -42 -147 -56 -322 -66 -215 -11 -221 -14 -371
-169 -88 -91 -118 -117 -122 -104 -6 19 -36 190 -36 203 0 5 10 9 23 9 33 0
107 50 144 96 47 60 95 139 151 247 l50 98 32 -55 c17 -31 33 -56 35 -56 2 0
-10 29 -26 65 l-31 65 18 47 c22 58 90 128 132 138 120 26 288 -140 349 -344
18 -63 22 -70 22 -41 2 102 -64 234 -163 328 -84 79 -152 105 -221 82 -67 -22
-104 -66 -166 -198 -117 -248 -221 -396 -304 -433 l-40 -18 -12 79 c-14 103
-53 183 -137 287 -59 73 -66 86 -66 126 0 130 82 316 213 482 28 36 17 27 -40
-31 -112 -114 -182 -257 -202 -405 l-6 -47 -70 91 c-112 145 -175 239 -175
259 0 30 37 94 76 133 44 45 94 76 164 104 l55 22 -45 -6 c-95 -12 -205 -84
-245 -159 -11 -20 -22 -36 -25 -36 -13 1 -149 209 -192 293 -54 104 -62 101
-19 -8 33 -82 57 -123 144 -243 l60 -84 -13 -54 -13 -55 -46 44 c-92 89 -270
188 -427 237 l-71 23 -12 73 c-16 98 -67 199 -131 258 -90 84 -267 148 -402
145 l-53 -1 45 -10 c214 -44 292 -72 368 -135 75 -61 130 -167 148 -280 4 -24
4 -43 0 -43 -3 0 -39 9 -79 20 -311 87 -550 55 -699 -95 -162 -161 -181 -411
-44 -562 20 -22 36 -42 36 -44 0 -2 -26 -5 -57 -7 -299 -15 -647 -189 -923
-461 -55 -54 -73 -75 -42 -50 308 253 529 383 762 446 78 22 118 26 225 27
127 1 132 0 195 -31 102 -50 100 -43 42 -110 -56 -65 -101 -148 -129 -238 -26
-87 -24 -276 5 -418 36 -176 27 -268 -38 -398 -68 -133 -164 -209 -284 -224
-29 -4 -207 -8 -397 -9 -321 -2 -349 -3 -424 -24 -117 -32 -235 -94 -305 -159
-86 -80 -95 -106 -14 -41 88 70 137 101 212 131 154 63 278 77 572 65 268 -10
392 1 477 42 74 37 136 102 185 197 76 144 84 236 42 466 -32 171 -29 274 11
395 26 76 92 187 139 231 19 18 28 21 43 13 40 -22 253 -263 253 -287 0 -4
-20 -37 -44 -74 -51 -77 -86 -152 -120 -260 -40 -125 -76 -315 -82 -429 -5
-91 -10 -116 -35 -169 -33 -69 -27 -65 -150 -82 -42 -6 -128 -29 -190 -51
-145 -52 -250 -70 -403 -70 -393 0 -598 -69 -849 -284 -32 -27 -55 -51 -53
-53 2 -3 38 20 79 51 169 128 328 203 492 232 44 8 181 19 305 24 242 10 280
16 450 76 128 45 236 55 321 30 30 -9 62 -22 72 -30 10 -8 36 -65 58 -126 l39
-112 -19 -26 c-32 -45 -103 -109 -151 -137 -39 -22 -41 -25 -15 -19 47 10 108
49 153 98 l41 45 13 -42 c7 -23 13 -78 13 -122 0 -67 -4 -87 -25 -123 -67
-117 -192 -115 -429 8 -75 39 -89 44 -64 22 52 -45 137 -92 214 -119 58 -20
87 -24 145 -21 63 3 77 7 111 34 45 37 82 119 83 184 0 25 -7 85 -17 133 l-17
88 50 49 49 50 65 -21 c93 -31 224 -29 351 4 93 24 257 92 247 102 -2 3 -38
-7 -79 -21 -137 -47 -269 -74 -360 -74 -80 0 -189 22 -189 38 1 11 62 51 407
266 l93 58 72 -40 c40 -22 104 -53 141 -68 80 -31 78 -28 113 -199 31 -152 34
-224 9 -262 -28 -44 -58 -74 -83 -84 -19 -7 -21 -13 -15 -36 11 -47 7 -116 -9
-147 l-15 -29 -6 52 c-7 61 -42 142 -81 188 -30 36 -118 83 -155 83 -18 0 -8
-8 37 -30 112 -57 163 -141 169 -280 5 -101 -12 -142 -73 -177 -21 -12 -119
-45 -219 -72 -166 -47 -627 -160 -720 -177 -22 -4 -45 -14 -51 -23 -9 -12 -35
-15 -131 -15 l-119 -1 0 -165 c0 -176 -12 -245 -58 -346 -32 -70 -132 -174
-205 -213 -152 -80 -355 -79 -526 3 -119 57 -214 149 -269 262 -22 45 -60 193
-83 322 -9 52 -24 17 -22 -53 1 -101 -1 -125 -10 -125 -21 0 -36 79 -36 191
l0 116 -200 6 c-110 4 -276 7 -369 7 l-168 0 5 -22 c3 -13 9 -73 13 -134 l7
-110 -51 -37 c-79 -59 -116 -70 -201 -64 -57 4 -91 14 -143 40 -74 36 -88 33
-34 -8 52 -40 136 -65 213 -65 77 0 130 20 181 68 l32 30 0 -51 c-1 -121 -52
-278 -113 -345 -68 -73 -129 -95 -311 -108 l-98 -7 2 224 c2 123 2 270 1 326
l-1 103 -36 32 c-51 47 -76 102 -82 180 -6 84 2 118 28 118 20 0 23 -9 34
-111 13 -120 36 -133 250 -137 87 -2 179 -1 203 3 l45 6 -7 42 c-24 142 -167
263 -358 303 -89 19 -261 14 -328 -10 -143 -52 -187 -171 -114 -316 19 -37 48
-90 65 -117 56 -88 74 -168 74 -343 1 -149 0 -155 -19 -158 -28 -4 -82 34
-120 84 -93 122 -163 555 -116 719 60 206 438 282 718 145 95 -47 182 -121
207 -178 l18 -40 277 -7 c152 -4 335 -5 406 -2 l130 6 72 70 c80 77 170 127
283 157 90 24 282 24 370 0 145 -40 277 -139 328 -249 l29 -61 7 37 7 37 73 0
c40 0 101 3 136 7 l62 6 -5 53 c-15 147 -125 253 -309 300 -135 34 -642 28
-924 -11 -247 -34 -379 -86 -459 -180 -63 -73 -85 -74 -121 -3 -35 70 -40 138
-19 292 20 149 16 232 -16 305 -42 99 -164 178 -288 189 -47 4 -62 2 -57 -7 4
-6 20 -11 35 -11 38 0 129 -32 178 -63 138 -87 163 -237 88 -534 -31 -120 -61
-181 -105 -210 -56 -38 -81 -31 -113 32 -99 189 -384 283 -699 231 -81 -13
-98 -9 -98 24 0 11 22 27 65 45 134 56 159 120 175 447 30 613 100 960 270
1344 216 488 530 893 908 1172 375 277 815 448 1307 508 160 19 545 11 744
-16z m-227 -631 c49 -6 133 -23 189 -37 l102 -27 18 -55 18 -55 -6 53 c-3 28
-4 52 -1 52 2 0 44 -13 92 -30 164 -55 350 -166 414 -248 l32 -39 -49 -154
c-26 -85 -56 -187 -66 -226 -17 -65 -20 -71 -35 -58 -31 28 -132 67 -189 72
-77 7 -155 -16 -209 -63 l-43 -37 8 39 c12 58 8 174 -8 212 -13 31 -14 27 -10
-64 3 -110 -15 -207 -57 -289 -31 -62 -111 -165 -127 -165 -7 0 -41 37 -76 83
-35 45 -95 113 -134 150 l-70 69 35 26 c124 95 190 156 226 209 35 51 70 123
60 123 -2 0 -16 -19 -31 -42 -54 -82 -101 -130 -208 -214 -60 -46 -112 -84
-116 -84 -20 0 -50 44 -61 90 -33 138 41 277 165 309 103 27 141 42 175 72
l35 30 -45 -25 c-25 -13 -76 -30 -115 -37 -131 -22 -209 -85 -242 -198 -15
-52 -14 -141 3 -184 11 -29 -108 19 -160 64 -51 45 -102 138 -112 204 -21 142
65 321 194 404 109 70 232 91 404 70z m1000 -430 c47 -64 134 -176 193 -250
119 -150 158 -217 174 -304 18 -97 25 -90 -96 -90 -60 0 -119 -4 -132 -9 l-25
-9 27 32 c31 38 47 89 46 151 l-1 45 -17 -65 c-20 -77 -49 -129 -94 -163 -31
-23 -160 -87 -177 -87 -5 0 -25 44 -45 98 -21 53 -53 125 -71 158 l-34 62 31
108 c16 60 45 159 64 219 18 61 39 138 46 173 6 35 15 60 19 55 4 -4 46 -60
92 -124z m-409 -369 c36 -11 79 -33 95 -48 29 -27 30 -31 21 -71 -15 -69 -58
-141 -123 -210 -68 -71 -48 -68 34 6 50 45 119 161 120 203 1 33 120 -232 120
-267 0 -7 -9 -13 -21 -13 -42 0 -183 -42 -243 -72 -46 -23 -94 -64 -198 -169
-76 -77 -142 -139 -147 -139 -5 0 -19 30 -31 68 -13 37 -47 131 -77 210 l-54
142 46 52 c26 29 68 89 93 133 101 175 205 224 365 175z m1803 -252 c86 -89
199 -258 277 -414 78 -156 134 -365 156 -579 19 -191 23 -285 13 -285 -19 0
-85 83 -113 144 -15 33 -37 103 -48 154 -11 51 -25 100 -31 110 -9 14 -10 12
-5 -11 3 -15 10 -96 15 -180 16 -257 21 -321 26 -344 8 -40 -30 -27 -79 26
-51 54 -118 156 -185 279 -69 125 -156 218 -267 281 -48 28 -212 93 -278 111
-55 15 -66 26 -37 35 30 9 87 101 100 160 14 61 -2 166 -31 215 -21 33 -38 36
-21 3 5 -10 15 -52 22 -94 11 -66 10 -84 -5 -135 -20 -70 -86 -144 -128 -144
-31 0 -256 65 -268 77 -5 5 -19 68 -30 139 l-21 130 89 91 c48 50 103 98 122
108 116 59 449 6 744 -119 20 -9 37 -14 37 -12 0 12 -133 77 -211 104 -154 54
-279 77 -422 77 l-129 0 43 19 c33 14 82 20 213 27 171 8 229 19 318 59 64 29
78 26 134 -32z m-1021 -59 c6 -6 47 -230 43 -234 -2 -2 -30 -16 -63 -33 -57
-29 -106 -61 -95 -62 3 0 43 16 88 35 45 19 82 31 82 27 0 -4 9 -61 19 -127
10 -66 18 -121 17 -121 0 -1 -35 7 -76 18 -106 29 -249 30 -310 2 -25 -12 -53
-29 -63 -39 -10 -9 -20 -16 -21 -14 -11 11 -36 299 -30 338 18 122 75 184 199
215 25 6 202 2 210 -5z m-413 -117 l-27 -58 -12 29 c-7 16 -13 35 -13 41 0 11
52 44 72 45 4 1 -5 -25 -20 -57z m-852 -66 c42 -106 111 -308 107 -312 -2 -2
-53 -23 -113 -47 -127 -50 -193 -92 -235 -149 -16 -23 -29 -36 -29 -30 0 7 12
67 26 134 28 134 64 255 99 334 33 75 95 168 105 158 5 -5 23 -44 40 -88z
m785 31 c16 -40 39 -162 59 -312 l14 -110 -71 -73 c-67 -68 -189 -174 -244
-209 -22 -14 -26 -14 -63 12 -66 46 -294 270 -315 309 -20 37 -20 37 0 48 11
6 76 67 145 137 140 142 198 179 326 210 117 29 132 28 149 -12z m476 -373
c100 -23 102 -25 89 -113 -15 -105 -58 -190 -136 -267 -67 -65 -161 -120 -225
-130 l-36 -6 -7 88 c-3 49 -17 150 -30 224 -26 145 -26 145 27 182 69 49 169
56 318 22z m-1131 -14 c0 -16 171 -190 267 -272 46 -39 83 -74 83 -78 0 -3
-48 -35 -107 -70 -60 -36 -180 -111 -268 -168 l-159 -104 -44 23 c-24 13 -64
40 -90 59 -43 32 -49 42 -65 105 -9 39 -18 105 -18 149 0 68 3 86 31 142 43
89 103 131 265 190 102 37 105 38 105 24z m1468 -90 c262 -81 301 -95 407
-149 100 -50 197 -137 234 -208 51 -101 66 -278 31 -363 -10 -25 -19 -40 -20
-35 -10 130 -52 243 -121 316 -34 37 -37 39 -16 9 61 -87 100 -193 112 -302 7
-61 6 -67 -16 -82 -22 -15 -24 -15 -31 1 -3 10 -7 29 -7 43 -2 38 -45 123 -88
171 -92 102 -274 181 -440 190 -24 2 -43 4 -43 6 0 2 7 14 14 26 25 37 38 117
30 177 l-8 55 -8 -73 c-10 -91 -36 -152 -80 -185 -32 -24 -175 -91 -393 -183
-107 -44 -175 -86 -231 -141 l-42 -41 -6 52 c-4 28 -19 102 -33 164 -14 62
-24 115 -22 117 8 8 103 -16 111 -28 4 -6 8 -37 9 -67 1 -30 5 -68 9 -85 4
-16 5 13 2 66 l-5 96 69 21 c131 40 258 143 314 255 26 53 40 104 55 200 3 20
8 37 11 37 3 0 94 -27 202 -60z m-684 -283 c9 -66 14 -123 11 -127 -3 -4 -13
-7 -23 -5 -9 2 -34 7 -54 10 l-38 6 0 127 c0 70 -5 145 -10 167 -9 38 -7 42
28 78 l37 38 17 -88 c9 -48 24 -141 32 -206z m-134 103 c2 -36 2 -97 1 -137
l-1 -71 -52 20 c-64 24 -188 88 -188 97 0 3 24 23 54 44 29 21 79 60 112 87
39 32 61 45 65 37 4 -7 8 -41 9 -77z m-1064 -231 c6 -27 10 -49 9 -49 -2 0
-19 7 -39 15 l-36 15 22 40 c13 21 25 36 28 34 3 -3 10 -28 16 -55z m2069 -53
c148 -40 278 -132 329 -233 29 -58 32 -90 13 -117 -13 -17 -761 -274 -921
-315 -98 -26 -187 -27 -226 -4 -49 28 -82 103 -87 197 -7 108 5 144 70 202 60
54 95 72 310 164 89 38 191 82 227 99 60 29 71 31 145 27 44 -3 107 -12 140
-20z m-1867 -160 c3 -3 -12 -24 -32 -46 -23 -26 -38 -36 -41 -28 -18 49 -45
132 -45 139 0 6 103 -51 118 -65z m2254 -327 c153 -32 302 -154 376 -309 65
-138 86 -245 86 -440 0 -149 -3 -175 -28 -265 -57 -207 -146 -357 -333 -560
-179 -194 -541 -531 -644 -599 -108 -71 -233 -83 -316 -29 -116 75 -148 224
-163 753 -5 173 -9 317 -10 320 -1 3 -5 -5 -10 -18 -5 -12 -14 -96 -20 -185
-26 -396 -73 -918 -91 -1002 -5 -27 -19 -70 -31 -94 l-21 -43 -33 38 -34 39
15 -43 c8 -24 17 -65 21 -92 8 -61 -5 -225 -17 -213 -5 5 -19 34 -31 64 l-23
56 -1 -231 c0 -218 -2 -237 -27 -330 -31 -114 -61 -172 -126 -239 -40 -42
-131 -117 -143 -117 -2 0 18 43 43 96 58 117 73 195 67 335 -4 78 -10 117 -28
156 -34 79 -52 87 -29 13 22 -70 25 -198 8 -282 -18 -90 -81 -206 -167 -308
-105 -126 -114 -132 -72 -48 l35 72 0 150 c0 131 -3 157 -21 196 l-20 45 4
-95 c9 -203 -77 -417 -206 -515 -69 -53 -72 -49 -50 57 15 72 19 118 15 203
-5 123 -21 178 -102 354 -46 101 -47 105 -43 181 8 145 80 239 254 336 109 60
202 146 265 242 56 85 79 142 114 284 31 125 48 169 86 228 l30 45 -49 -52
c-38 -40 -60 -78 -97 -165 -26 -62 -58 -132 -72 -155 -27 -47 -86 -104 -133
-128 l-32 -17 5 29 c3 15 9 59 12 98 7 70 35 174 62 230 13 28 13 29 -2 10
-38 -46 -66 -107 -105 -225 -56 -169 -90 -228 -190 -333 -95 -101 -161 -151
-305 -230 -137 -76 -232 -107 -332 -107 -130 0 -187 26 -342 155 -104 86 -187
186 -266 318 -30 51 -74 118 -99 149 -160 202 -467 337 -647 285 -30 -9 -62
-22 -72 -30 -16 -11 -7 -12 61 -4 112 13 168 3 209 -38 29 -29 33 -40 33 -84
0 -41 -5 -56 -30 -84 -35 -40 -61 -49 -255 -81 -444 -74 -574 -74 -708 2 -66
37 -112 100 -133 181 -27 107 -10 169 145 545 114 274 249 657 265 749 12 72
12 72 41 68 60 -7 193 -62 234 -98 45 -38 69 -78 96 -163 10 -30 38 -95 63
-145 38 -74 63 -107 142 -186 81 -82 108 -102 190 -141 149 -73 245 -99 380
-105 289 -12 502 107 627 352 28 55 58 126 66 158 9 33 17 61 19 63 2 2 34 -1
71 -7 48 -8 98 -7 173 1 170 18 156 25 -43 22 -102 -2 -189 0 -193 5 -5 4 -5
43 0 85 6 61 13 85 34 113 53 69 105 88 531 185 77 18 244 61 370 97 127 35
331 89 455 119 124 31 298 76 387 100 190 52 219 54 235 19 6 -14 9 -27 6 -30
-5 -6 -327 -92 -645 -173 l-232 -59 40 -19 c62 -28 88 -69 105 -169 9 -48 29
-121 46 -164 47 -115 58 -167 58 -269 0 -173 -50 -321 -141 -417 -62 -66 -128
-99 -283 -144 -202 -59 -328 -137 -464 -289 -95 -107 -255 -269 -302 -306
l-35 -28 54 29 c54 27 145 112 320 296 147 154 242 208 466 267 199 52 315
131 384 259 61 115 66 153 66 501 l0 315 33 68 c39 79 87 119 170 143 72 21
137 14 169 -19 51 -51 69 -247 37 -403 -12 -58 -14 -98 -9 -154 5 -41 9 -116
9 -165 1 -86 -1 -93 -33 -143 -18 -29 -43 -59 -54 -67 l-21 -15 20 0 c30 0
100 54 121 92 15 28 19 67 23 253 5 183 10 245 34 370 54 294 105 415 221 530
125 126 293 178 457 144z m-4992 -1566 c0 -40 -51 -353 -61 -382 -8 -18 -12
-21 -23 -12 -25 21 -59 115 -82 231 -34 164 -36 156 39 173 34 8 77 15 95 16
29 1 32 -2 32 -26z m1345 -828 c39 -18 122 -69 185 -115 63 -45 135 -92 160
-105 137 -71 285 -203 339 -304 34 -64 53 -163 33 -175 -6 -3 -39 29 -73 71
-85 106 -95 115 -71 68 42 -84 71 -165 59 -165 -18 0 -63 32 -85 60 -10 14
-42 70 -70 125 -54 105 -117 184 -198 250 -27 21 -39 28 -28 14 46 -51 93
-139 115 -210 12 -41 41 -103 66 -139 46 -69 53 -94 27 -104 -28 -11 -87 26
-129 82 -31 40 -56 60 -110 86 -38 19 -115 65 -170 103 -80 55 -111 84 -154
143 -77 107 -53 46 36 -90 82 -126 82 -133 -4 -110 -32 9 -56 26 -87 62 l-42
48 7 -72 c5 -39 10 -77 13 -85 8 -19 -12 -16 -106 13 -165 52 -268 124 -309
214 l-23 50 -21 -74 c-36 -124 -103 -202 -183 -213 -33 -4 -44 -1 -73 25 -31
27 -33 34 -33 87 l1 57 -67 -73 c-37 -41 -82 -82 -100 -93 l-32 -18 16 29 c8
17 18 54 22 84 l7 54 -38 -47 c-20 -26 -77 -74 -125 -108 l-89 -60 20 57 c24
67 80 220 104 278 14 36 14 38 0 20 -9 -11 -37 -59 -62 -107 -51 -97 -144
-219 -151 -198 -7 19 17 115 49 200 l28 75 -24 -30 c-42 -51 -92 -155 -124
-261 -17 -55 -39 -108 -50 -118 -18 -16 -18 -14 -25 48 -3 35 -4 70 -2 77 2 8
7 29 10 48 l6 35 -31 -48 c-17 -26 -33 -45 -36 -43 -8 9 30 165 53 214 39 82
106 166 181 226 73 59 154 111 191 122 21 6 22 5 10 -22 -7 -15 -34 -62 -62
-103 l-49 -75 71 66 c47 45 87 73 124 87 l53 20 3 -26 c2 -16 -22 -78 -69
-173 -40 -82 -70 -151 -68 -154 8 -7 161 170 190 221 15 25 30 41 33 35 4 -5
12 -44 18 -85 7 -42 15 -76 18 -76 3 0 22 33 42 73 l37 72 0 -80 c-1 -44 -4
-106 -8 -138 -4 -31 -4 -54 0 -50 8 10 34 83 54 156 8 31 19 57 24 57 10 0 21
-50 21 -98 0 -57 18 -26 34 60 16 81 30 118 46 118 6 0 10 -18 10 -39 0 -60
15 -57 29 4 7 30 17 57 22 60 5 3 22 -14 38 -39 l28 -46 -5 70 -5 70 29 1 c93
5 155 -18 230 -84 42 -37 46 -38 40 -17 -4 14 -22 54 -39 90 -18 36 -33 68
-35 73 -8 16 110 7 146 -12 45 -24 100 -81 136 -141 47 -81 30 -9 -24 98 -27
55 -50 103 -50 106 0 11 53 -5 125 -39z m1433 -644 c123 -184 161 -394 106
-581 -24 -83 -91 -214 -143 -280 -49 -64 -149 -146 -161 -133 -4 4 -18 87 -30
183 -28 216 -39 261 -95 378 -24 50 -41 92 -37 92 17 0 104 -85 133 -130 18
-28 34 -48 37 -46 8 9 -45 111 -84 161 -154 200 -172 234 -159 296 8 36 14 36
83 3 31 -15 80 -35 110 -45 l54 -18 -51 45 c-50 45 -98 110 -88 121 3 3 38 0
77 -7 57 -10 85 -21 135 -55 l62 -43 -18 60 c-39 123 -13 123 69 -1z m-2253
-71 c138 -36 139 -36 126 -11 -8 14 -7 20 2 24 21 8 159 -33 246 -74 46 -21
86 -39 88 -39 2 0 -6 18 -18 40 -12 22 -20 42 -17 45 21 21 417 -165 510 -239
108 -86 188 -206 237 -351 46 -141 65 -269 66 -440 0 -177 -13 -231 -78 -327
-54 -78 -194 -195 -212 -176 -3 3 1 34 9 69 8 35 16 82 19 104 l6 40 -29 -55
c-34 -66 -101 -145 -142 -166 -37 -19 -41 -16 -22 21 72 136 109 215 100 215
-3 0 -25 -29 -50 -65 -26 -35 -50 -66 -54 -69 -4 -2 7 39 25 92 43 128 63 260
63 407 -1 272 -61 425 -240 606 -79 80 -109 103 -180 138 -105 51 -195 71
-328 71 -185 0 -328 -45 -457 -143 -75 -57 -128 -119 -221 -259 -80 -119 -83
-117 -42 27 34 121 93 221 183 311 44 44 105 95 135 113 30 18 44 29 30 26
-90 -24 -229 -112 -317 -200 -35 -35 -63 -60 -63 -57 0 3 18 43 41 88 67 137
168 215 320 248 96 21 137 19 264 -14z m764 -46 c173 -50 357 -158 459 -269
107 -117 155 -248 155 -430 0 -76 3 -101 8 -80 19 68 39 239 39 333 0 129 7
161 36 174 42 19 67 -3 130 -114 l59 -103 7 119 c5 66 10 121 12 124 7 7 154
-80 195 -115 113 -96 134 -338 46 -531 -32 -69 -112 -152 -184 -191 -32 -17
-64 -31 -71 -31 -10 0 -11 24 -6 105 4 58 5 105 2 105 -3 0 -20 -28 -37 -62
-74 -148 -185 -279 -285 -335 l-39 -21 3 169 c4 198 -7 325 -42 462 -74 291
-194 453 -446 601 -74 44 -151 90 -170 104 l-35 24 39 -7 c21 -3 77 -18 125
-31z m-929 -320 c0 -9 -24 -62 -54 -118 -72 -135 -90 -197 -84 -300 5 -69 42
-206 53 -194 2 2 -3 28 -12 58 -20 74 -12 206 17 284 34 89 123 166 194 166
36 0 43 -37 22 -109 -9 -31 -20 -65 -23 -76 -11 -38 77 57 119 128 22 38 42
66 45 64 7 -8 -26 -118 -44 -145 -41 -65 42 -1 98 74 22 30 45 54 51 54 14 0
3 -98 -17 -148 l-15 -37 22 25 c19 22 40 64 77 153 13 34 16 33 149 -29 51
-24 97 -44 102 -44 17 0 11 18 -30 100 -22 44 -35 80 -29 80 26 0 129 -74 187
-134 116 -120 170 -285 159 -481 -11 -194 -69 -341 -182 -463 -140 -151 -328
-210 -580 -182 -277 29 -481 158 -572 360 -76 168 -82 441 -13 623 46 122 163
236 292 285 65 26 68 26 68 6z"/>
<path d="M6841 8285 c-1 -28 63 -117 106 -147 l48 -32 -56 55 c-31 30 -66 72
-77 94 -12 22 -21 36 -21 30z"/>
<path d="M4667 7432 c61 -49 101 -107 131 -191 21 -61 22 -63 16 -21 -13 92
-68 177 -146 226 -56 35 -56 29 -1 -14z"/>
<path d="M2580 6949 c-40 -16 -60 -40 -60 -71 0 -44 15 -64 80 -108 63 -43 74
-67 46 -105 -20 -28 -79 -25 -111 5 l-25 23 0 -21 c0 -14 12 -30 33 -43 68
-43 157 0 157 77 0 39 -18 61 -90 105 -41 25 -50 36 -50 59 0 42 21 54 85 46
45 -5 55 -3 55 8 0 9 -16 20 -37 25 -45 13 -50 13 -83 0z"/>
<path d="M2805 6946 c-92 -41 -76 -121 37 -183 50 -27 64 -49 53 -83 -14 -45
-80 -49 -124 -8 -26 23 -36 19 -26 -12 8 -25 60 -50 105 -50 41 0 90 47 90 87
0 40 -22 67 -85 105 -64 38 -80 66 -58 98 14 19 22 22 69 18 39 -3 54 -1 54 8
0 17 -8 21 -50 28 -20 3 -48 0 -65 -8z"/>
<path d="M2987 6943 c-4 -3 -7 -78 -7 -165 0 -126 3 -158 14 -158 9 0 15 21
20 72 7 76 14 88 58 88 20 0 26 4 22 15 -4 9 -19 15 -40 15 l-34 0 0 49 0 49
40 7 c62 11 53 35 -13 35 -30 0 -57 -3 -60 -7z"/>
<path d="M3120 6936 c0 -12 10 -16 45 -16 44 0 85 -24 85 -51 0 -31 -23 -49
-70 -55 -28 -4 -51 -9 -51 -13 -2 -10 -2 -41 -1 -113 2 -53 5 -68 17 -68 12 0
15 15 15 78 l0 77 37 3 c52 3 85 38 85 87 0 55 -27 78 -102 83 -50 4 -60 2
-60 -12z"/>
<path d="M3371 6943 c-49 -4 -53 -6 -47 -26 3 -12 6 -86 6 -165 0 -110 3 -143
13 -140 8 3 13 31 15 81 l3 77 54 0 c42 0 55 3 55 15 0 12 -13 15 -55 15 l-55
0 0 55 0 55 55 0 c48 0 55 2 55 20 0 15 -6 20 -22 18 -13 -1 -47 -3 -77 -5z"/>
<path d="M3506 6902 c-3 -20 -6 -94 -6 -164 0 -106 3 -128 15 -128 12 0 15 23
17 123 l3 122 27 -50 c52 -99 52 -99 87 -25 l31 65 0 -112 c0 -65 4 -113 10
-113 5 0 11 15 14 33 7 44 12 277 6 277 -8 0 -80 -115 -80 -128 0 -34 -23 -13
-60 53 -23 41 -45 77 -49 80 -5 2 -11 -12 -15 -33z"/>
<path d="M3802 6828 c-18 -62 -39 -134 -47 -160 -12 -41 -12 -48 0 -48 7 0 19
16 26 35 12 33 15 35 61 35 45 0 49 -2 62 -35 9 -20 22 -35 31 -35 9 0 14 5
12 13 -3 6 -27 78 -54 159 -26 81 -50 148 -53 148 -3 0 -20 -51 -38 -112z m53
-25 c33 -78 32 -83 -13 -83 l-41 0 14 41 c8 23 15 50 15 60 0 29 8 23 25 -18z"/>
<path d="M3980 6780 c0 -136 2 -160 15 -160 13 0 15 24 15 160 0 136 -2 160
-15 160 -13 0 -15 -24 -15 -160z"/>
<path d="M4060 6780 c0 -136 2 -160 15 -160 13 0 15 24 15 160 0 136 -2 160
-15 160 -13 0 -15 -24 -15 -160z"/>
<path d="M4140 6775 c0 -140 2 -165 15 -165 13 0 15 21 15 133 l0 132 21 -25
c42 -52 98 -143 110 -178 23 -75 29 -55 29 106 0 135 -2 162 -15 162 -11 0
-15 -19 -17 -90 l-3 -90 -65 90 c-36 49 -71 89 -77 90 -10 0 -13 -39 -13 -165z"/>
<path d="M4380 6780 c0 -136 2 -160 15 -160 13 0 15 24 15 160 0 136 -2 160
-15 160 -13 0 -15 -24 -15 -160z"/>
<path d="M4460 6774 l0 -167 66 6 c82 8 107 24 129 82 33 85 2 205 -60 233
-14 7 -50 12 -80 12 l-55 0 0 -166z m87 136 c63 0 107 -100 83 -188 -13 -49
-41 -71 -100 -79 l-40 -6 0 143 c0 125 2 141 16 136 9 -3 27 -6 41 -6z"/>
<path d="M2730 6425 c-30 -9 -68 -24 -85 -35 -38 -25 -33 -25 33 0 75 29 180
35 282 16 46 -8 86 -14 87 -12 2 2 -24 11 -58 20 -88 25 -193 29 -259 11z"/>
<path d="M2450 6380 c0 -32 51 -90 79 -90 10 1 5 7 -11 16 -15 8 -37 31 -47
52 -11 20 -20 30 -21 22z"/>
<path d="M4722 6195 c-54 -15 -202 -80 -202 -88 0 -3 34 8 75 24 126 49 197
62 320 56 79 -3 103 -2 85 5 -44 18 -219 20 -278 3z"/>
<path d="M3262 6133 c-26 -38 -34 -53 -29 -53 2 0 16 18 31 40 29 45 28 56 -2
13z"/>
<path d="M5479 6053 c-42 -111 -6 -224 71 -222 l25 0 -25 10 c-56 22 -79 93
-62 187 10 57 7 67 -9 25z"/>
<path d="M4640 6041 c-61 -9 -183 -42 -177 -48 2 -2 37 4 78 12 41 9 128 20
194 24 66 5 104 9 84 10 -20 0 -56 3 -80 5 -24 2 -69 1 -99 -3z"/>
<path d="M5405 5585 c-135 -65 -263 -79 -375 -40 l-45 15 25 -20 c42 -33 87
-43 179 -38 94 5 207 44 266 93 38 31 35 30 -50 -10z"/>
<path d="M4035 5503 c-111 -15 -249 -80 -324 -154 -46 -45 -100 -134 -88 -145
3 -3 41 0 86 7 66 10 113 10 253 -2 95 -8 229 -13 298 -13 148 2 349 30 357
50 17 45 -80 155 -177 202 -108 51 -270 73 -405 55z"/>
<path d="M4520 5164 c-138 -25 -369 -29 -533 -9 -82 9 -150 15 -152 13 -7 -7
187 -57 265 -69 115 -16 322 -14 415 6 77 16 147 45 160 65 8 14 -61 11 -155
-6z"/>
<path d="M2695 5128 c-44 -5 -134 -5 -200 -2 -112 5 -119 5 -104 -11 22 -23
165 -38 287 -32 95 4 121 14 106 39 -7 10 -26 12 -89 6z"/>
<path d="M2450 5055 c0 -3 28 -19 62 -36 96 -48 221 -50 283 -5 31 22 14 27
-35 10 -63 -22 -199 -15 -262 14 -27 11 -48 19 -48 17z"/>
<path d="M4020 5014 c93 -43 372 -69 458 -42 41 12 33 13 -110 14 -133 1 -288
17 -364 39 -11 3 -3 -2 16 -11z"/>
<path d="M4592 4935 c-83 -43 -113 -51 -292 -74 -70 -9 -67 -9 55 -7 151 4
218 24 288 87 23 21 40 38 37 37 -3 0 -42 -20 -88 -43z"/>
<path d="M3865 4855 c99 -85 269 -137 455 -139 180 -2 300 36 358 112 30 40
25 40 -23 2 -154 -123 -510 -111 -765 25 l-65 34 40 -34z"/>
<path d="M5715 8210 c11 -66 72 -176 118 -212 l42 -33 -35 40 c-48 54 -79 107
-107 179 -17 44 -22 51 -18 26z"/>
<path d="M7767 7279 c7 -7 15 -10 18 -7 3 3 -2 9 -12 12 -14 6 -15 5 -6 -5z"/>
<path d="M7680 7058 c114 -49 153 -72 204 -119 33 -30 72 -72 88 -93 30 -41
40 -38 11 4 -72 106 -158 176 -252 204 -61 18 -89 20 -51 4z"/>
<path d="M7740 6682 c0 -39 95 -260 107 -249 2 2 -11 35 -28 73 -18 38 -43 98
-55 134 -13 36 -24 55 -24 42z"/>
<path d="M5425 6691 c-49 -22 -99 -76 -115 -125 -18 -56 -6 -65 19 -13 44 91
133 141 210 118 52 -15 87 -58 102 -126 15 -67 33 -73 23 -8 -14 93 -50 145
-115 163 -49 14 -78 12 -124 -9z"/>
<path d="M7388 5820 c-72 -18 -162 -72 -224 -134 -109 -109 -186 -310 -188
-491 -1 -97 3 -109 65 -191 28 -37 32 -52 36 -127 7 -113 -12 -239 -45 -300
-16 -30 -55 -73 -99 -110 -76 -64 -90 -88 -79 -133 15 -59 85 -94 161 -80 60
12 148 103 200 210 70 141 88 223 89 401 0 167 -12 237 -65 358 -37 84 -35
107 16 216 74 154 157 217 280 209 118 -7 201 -85 248 -232 19 -61 22 -92 21
-221 -1 -129 -5 -164 -27 -250 -48 -178 -139 -339 -335 -593 -94 -121 -158
-216 -197 -292 -17 -32 -14 -31 51 27 146 129 404 397 464 481 189 265 249
555 174 849 -25 99 -90 219 -154 283 -83 83 -165 121 -272 126 -46 2 -100 -1
-120 -6z"/>
<path d="M5250 5149 c-53 -7 -175 -47 -168 -54 2 -2 28 4 58 12 97 27 245 21
390 -16 160 -40 274 -53 359 -41 71 10 130 27 146 42 6 5 -3 4 -20 -3 -19 -8
-79 -13 -165 -13 -119 0 -153 4 -290 36 -182 42 -235 48 -310 37z"/>
<path d="M4960 5018 c0 -9 212 -8 255 1 16 3 -34 6 -113 6 -78 0 -142 -3 -142
-7z"/>
<path d="M6077 5004 c-3 -4 -77 -10 -164 -15 -144 -8 -255 -26 -272 -45 -3 -4
5 -4 19 0 14 4 99 11 190 16 106 6 182 15 213 25 26 9 47 19 47 21 0 6 -26 5
-33 -2z"/>
<path d="M6145 4887 c-14 -8 -79 -12 -205 -12 -214 0 -234 -5 -385 -97 -49
-30 -106 -61 -125 -68 -23 -9 -104 -15 -235 -19 -192 -6 -202 -7 -256 -33 -31
-16 -64 -37 -74 -48 -17 -19 -14 -18 36 5 80 36 144 45 308 43 174 -2 220 9
331 78 168 105 254 128 426 118 81 -5 111 -3 152 10 29 10 54 22 57 27 8 12
-6 11 -30 -4z"/>
<path d="M6175 4788 c-36 -14 -90 -22 -195 -28 -198 -12 -259 -32 -410 -133
-115 -78 -147 -87 -344 -97 -142 -7 -185 -13 -256 -35 -83 -26 -284 -115 -277
-122 2 -2 55 15 118 37 196 71 240 80 424 90 104 6 187 15 213 24 24 9 92 48
153 87 135 88 195 108 363 119 133 9 203 26 246 60 30 23 29 23 -35 -2z"/>
<path d="M6132 4549 c-140 -148 -216 -187 -446 -228 -225 -41 -296 -93 -411
-307 -89 -164 -162 -242 -286 -303 -110 -54 -207 -75 -324 -68 -159 10 -267
62 -409 197 -160 152 -219 183 -463 249 -53 14 -73 48 -74 123 l-1 53 -15 -49
c-18 -60 -10 -109 22 -134 13 -11 63 -29 111 -41 178 -45 257 -90 414 -236
151 -142 276 -195 455 -195 177 0 316 56 445 177 66 62 87 90 146 200 114 213
181 264 394 303 63 12 146 31 184 42 89 28 194 103 262 187 46 58 90 122 82
120 -2 0 -41 -40 -86 -90z"/>
<path d="M5730 4494 c-110 -57 -182 -78 -364 -109 -144 -25 -178 -35 -378
-119 -135 -57 -227 -77 -353 -78 -132 -1 -240 18 -407 72 -67 21 -124 37 -126
35 -7 -6 90 -51 169 -79 131 -44 215 -59 354 -59 162 -1 212 11 433 102 135
57 190 74 287 91 242 42 345 80 464 172 36 28 14 20 -79 -28z"/>
<path d="M5551 3800 c-22 -27 -54 -76 -72 -107 -134 -237 -283 -367 -479 -418
-75 -20 -203 -16 -282 8 -27 8 -48 13 -48 10 0 -2 26 -16 58 -30 75 -35 190
-42 282 -19 134 35 282 130 369 239 27 35 80 119 116 187 37 69 76 137 87 153
33 46 11 30 -31 -23z"/>
<path d="M6171 3402 c-1 -24 3 -41 8 -38 5 3 9 -10 9 -30 0 -19 3 -38 6 -41
11 -11 5 72 -9 112 l-13 40 -1 -43z"/>
<path d="M6161 3340 c-1 -8 -12 -39 -26 -67 -13 -29 -22 -53 -20 -53 11 0 56
103 52 118 -4 13 -5 14 -6 2z"/>
<path d="M3567 3285 c17 -28 45 -87 63 -132 19 -46 35 -81 38 -78 9 8 -41 142
-69 187 -41 64 -69 84 -32 23z"/>
<path d="M4070 3179 c18 -26 48 -62 68 -80 32 -31 31 -29 -9 20 -75 91 -92
108 -59 60z"/>
<path d="M5375 2695 c20 -59 37 -188 33 -261 -2 -55 0 -77 6 -66 6 9 12 54 14
99 3 64 0 96 -17 150 -11 37 -26 75 -32 83 -9 12 -10 11 -4 -5z"/>
<path d="M5286 2573 c13 -34 31 -90 38 -125 l14 -63 1 47 c1 52 -29 144 -59
180 -16 19 -15 13 6 -39z"/>
<path d="M3982 2318 c18 -43 33 -76 35 -74 7 7 -29 103 -47 126 -14 19 -11 5
12 -52z"/>
<path d="M4167 1848 c-4 -40 -15 -106 -25 -145 -10 -40 -17 -73 -15 -73 2 0
14 21 25 48 15 33 23 75 26 145 5 113 -2 130 -11 25z"/>
<path d="M2720 2078 c-38 -175 -27 -352 26 -438 8 -14 13 -17 10 -7 -21 69
-28 168 -23 324 3 95 4 173 2 173 -2 0 -8 -24 -15 -52z"/>
</g>
</svg>
